PathFileType	4	(X/Y/Z)	Static_1_OpenSim.trc																																																																																																																																								
DataRate	CameraRate	NumFrames	NumMarkers	Units	OrigDataRate	OrigDataStartFrame	OrigNumFrames																																																																																																																																				
100	100	5	46	mm	100	210	559																																																																																																																																				
Frame#	Time	R.Acromium			L.Acromium			Sternum			R.Bicep			L.Bicep			R.Elbow			L.Elbow			R.Wrist.Med			R.Wrist.Lat			L.Wrist.Med			L.Wrist.Lat			R.ASIS			R.PSIS			S2			L.PSIS			L.ASIS			R.TH1			R.TH2			R.TH3			R.Knee			R.SH1			R.SH2			R.SH3			R.SH4			R.Ankle			R.Heel			R.MT5			R.MT1			R.Toe.Tip			L.TH1			L.TH2			L.TH3			L.TH4			L.Knee			L.SH1			L.SH2			L.SH3			L.Ankle			L.Heel			L.MT5			L.MT1			L.Toe.Tip			R.MKnee			R.MAnkle			L.MKnee			L.MAnkle		
		X1	Y1	Z1	X2	Y2	Z2	X3	Y3	Z3	X4	Y4	Z4	X5	Y5	Z5	X6	Y6	Z6	X7	Y7	Z7	X8	Y8	Z8	X9	Y9	Z9	X10	Y10	Z10	X11	Y11	Z11	X12	Y12	Z12	X13	Y13	Z13	X14	Y14	Z14	X15	Y15	Z15	X16	Y16	Z16	X17	Y17	Z17	X18	Y18	Z18	X19	Y19	Z19	X20	Y20	Z20	X21	Y21	Z21	X22	Y22	Z22	X23	Y23	Z23	X24	Y24	Z24	X25	Y25	Z25	X26	Y26	Z26	X27	Y27	Z27	X28	Y28	Z28	X29	Y29	Z29	X30	Y30	Z30	X31	Y31	Z31	X32	Y32	Z32	X33	Y33	Z33	X34	Y34	Z34	X35	Y35	Z35	X36	Y36	Z36	X37	Y37	Z37	X38	Y38	Z38	X39	Y39	Z39	X40	Y40	Z40	X41	Y41	Z41	X42	Y42	Z42	X43	Y43	Z43	X44	Y44	Z44	X45	Y45	Z45	X46	Y46	Z46
																																																																																																																																											
210	2.09	939.8327	1484.5813	-323.4937	909.9385	1484.3195	-754.5732	1036.924	1305.2454	-542.2361	955.0476	1263.6051	-294.8881	929.1606	1261.7052	-783.1597	901.4478	1138.729	-250.6721	877.5001	1142.1751	-819.6151	1032.0995	907.7943	-272.3752	981.2203	897.0095	-233.1659	1002.2814	914.0283	-804.2456	953.5928	906.7781	-845.0438	1003.0375	1015.3044	-425.5229	810.288	1048.8079	-480.1382	798.6904	1038.0531	-535.1761	801.0723	1046.7983	-605.4653	986.4969	1013.9343	-676.8521	972.1165	766.8356	-342.519	889.4539	766.6599	-337.8326	889.4128	656.7226	-343.7277	918.2354	523.1209	-359.5527	885.3564	408.564	-328.8579	884.1815	295.6794	-325.8845	809.4883	410.2698	-361.4413	807.2873	297.1555	-351.9604	858.8496	92.0005	-349.3011	809.2838	56.0219	-423.7779	952.1838	32.7562	-297.8186	1013.5508	37.0957	-391.5841	1050.4718	47.7505	-328.3839	940.423	774.4947	-749.0637	931.2571	667.496	-751.6345	855.6029	778.2437	-742.3841	852.1631	668.1044	-735.5039	886.0947	528.7392	-727.3711	873.0358	419.8787	-756.8372	792.0849	422.7915	-743.7493	791.0609	312.7865	-742.3767	839.2787	92.9491	-737.6235	785.3262	52.6565	-668.045	926.8146	32.3355	-791.9821	990.7479	36.3858	-696.4483	1031.0748	45.7672	-765.3922	921.3789	503.164	-470.631	895.5927	99.8545	-434.2589	905.5803	502.9827	-618.8932	874.0103	105.4481	-654.5695
211	2.1	939.9526	1484.6182	-323.5436	909.8872	1484.2554	-754.642	1036.98	1305.2154	-542.2587	955.1692	1263.6433	-295.018	929.185	1261.6782	-783.2084	901.5022	1138.7837	-250.6132	877.4722	1142.0808	-819.5845	1032.1382	907.8086	-272.3386	981.2634	897.06	-233.0582	1002.3239	913.9398	-804.1792	953.608	906.687	-844.9644	1003.1444	1015.3135	-425.5326	810.314	1048.8513	-480.1343	798.7449	1038.0714	-535.1046	801.0961	1046.8166	-605.4513	986.4898	1013.8544	-676.8395	972.1771	766.8399	-342.502	889.4961	766.681	-337.754	889.5583	656.553	-343.7645	918.2383	523.1187	-359.5599	885.3807	408.556	-328.8682	884.1929	295.6662	-325.889	809.4672	410.2629	-361.4361	807.295	297.168	-351.9282	858.8303	92.0124	-349.3084	809.2471	55.9948	-423.8151	952.2155	32.7472	-297.8369	1013.4469	37.6966	-392.2206	1050.4666	47.7463	-328.3919	940.381	774.5004	-749.0393	931.6195	667.6163	-749.6885	855.5589	778.1865	-742.3972	852.0987	668.2327	-735.4056	886.0838	528.6956	-727.3621	872.9998	419.8391	-756.8392	792.0969	422.7531	-743.712	791.0566	312.7881	-742.3655	839.2551	92.9683	-737.6311	785.3348	52.6613	-668.0494	926.8436	32.3278	-791.9835	990.7609	36.3833	-696.4832	1030.9375	45.7323	-765.5172	921.4452	503.1947	-470.5973	895.6213	99.8349	-434.2719	905.6229	502.9597	-618.8663	874.0399	105.431	-654.5749
212	2.11	940.0297	1484.6759	-323.6709	909.8689	1484.2123	-754.7128	1037.0418	1305.2239	-542.2894	955.2242	1263.6746	-294.998	929.1779	1261.6365	-783.198	901.2913	1138.6268	-250.3626	877.4623	1141.9935	-819.5719	1032.2358	908.1177	-272.2617	981.0646	897.0223	-233.2299	1002.3557	913.9246	-804.0931	953.6412	906.6231	-844.8789	1003.1841	1015.3114	-425.5245	810.3427	1048.8527	-480.1226	798.6743	1038.1361	-535.0933	801.1161	1046.8328	-605.4426	986.5509	1013.8744	-676.8339	972.2199	766.8386	-342.4919	889.5048	766.6963	-337.8059	889.5888	656.566	-343.7317	918.2359	523.1429	-359.5314	885.3817	408.5635	-328.8756	883.9655	295.6189	-326.2409	809.4712	410.2833	-361.417	807.2714	297.1756	-351.9621	858.8074	92.025	-349.3124	809.2274	56.0288	-423.8245	952.2161	32.7975	-297.8353	1013.4539	37.7239	-392.2476	1050.4612	47.7527	-328.3906	940.4189	774.4629	-748.9728	931.5814	667.6372	-749.5639	855.6065	778.2449	-742.3591	852.1142	668.2331	-735.387	886.0987	528.7015	-727.3007	872.9952	419.8533	-756.8278	792.0869	422.7624	-743.7151	791.0572	312.8148	-742.3666	839.3077	92.9846	-737.6151	785.3237	52.6515	-668.0579	926.8242	32.3258	-791.9951	990.75	36.3703	-696.4785	1030.9464	45.7236	-765.496	921.4227	503.2159	-470.5834	895.6416	99.8765	-434.2753	905.605	503.0053	-618.8497	874.0457	105.4663	-654.5727
213	2.12	940.147	1484.7086	-323.7766	909.8845	1484.1302	-754.6866	1037.0707	1305.2391	-542.3041	955.2563	1263.7082	-294.9053	929.1848	1261.5867	-783.1619	901.6422	1138.8626	-250.5366	877.4908	1141.949	-819.5366	1032.2483	908.0784	-272.2076	981.098	897.0273	-233.1532	1002.3713	913.8803	-804.0554	953.5361	906.5661	-844.6218	1003.214	1015.305	-425.4898	810.4499	1048.8756	-480.0549	798.7504	1038.1614	-535.0367	801.1258	1046.8541	-605.3686	986.5906	1013.8607	-676.7758	972.2312	766.8233	-342.482	889.5357	766.6744	-337.8081	889.6171	656.5625	-343.728	918.24	523.1883	-359.523	885.3747	408.5738	-328.8298	883.9564	295.6227	-326.2323	809.4429	410.2714	-361.4287	807.2511	297.1679	-351.9294	858.8113	92.0677	-349.2901	809.2447	56.0575	-423.8154	952.2236	32.7964	-297.8418	1013.4567	37.7536	-392.2199	1050.4579	47.7888	-328.3858	940.4407	774.4751	-748.9876	931.6289	667.6287	-749.5107	855.6779	778.2615	-742.2824	852.1458	668.0704	-735.461	886.1228	528.7377	-727.2958	873.0173	419.8729	-756.7909	792.1176	422.8138	-743.7239	791.0409	312.8473	-742.3558	839.2647	92.9519	-737.6157	785.3278	52.6877	-668.0422	926.8305	32.3666	-791.9888	990.7363	36.3696	-696.4651	1030.9562	45.7298	-765.5061	921.4047	503.1603	-470.5483	895.6185	99.8813	-434.2559	905.6233	502.9932	-618.8177	874.0392	105.4944	-654.588
214	2.13	940.2767	1484.745	-323.726	909.9246	1484.1741	-754.6809	1037.0953	1305.234	-542.3164	955.3751	1263.7244	-295.0128	929.2071	1261.5736	-783.1738	901.697	1138.9233	-250.5258	877.5003	1141.9192	-819.4632	1032.3173	908.1502	-272.1527	981.1404	897.0377	-233.101	1002.4072	913.8671	-803.9816	953.5787	906.5236	-844.5267	1003.283	1015.3066	-425.4947	810.4921	1048.9303	-480.0031	798.7893	1038.1541	-535.0392	801.1916	1046.8578	-605.3398	986.6566	1013.9152	-676.7668	972.2469	766.8214	-342.4713	889.5984	766.7558	-337.7283	889.6576	656.5605	-343.7132	918.2524	523.1492	-359.5041	885.3633	408.58	-328.7998	883.9674	295.6238	-326.223	809.4548	410.3129	-361.385	807.291	297.217	-351.9326	858.781	92.0451	-349.3022	809.261	56.0728	-423.7902	952.2148	32.7815	-297.8362	1013.4496	37.786	-392.1941	1050.4528	47.787	-328.388	940.4514	774.5285	-748.9017	931.6376	667.6794	-749.4019	855.5881	778.3765	-742.3012	852.1397	668.2615	-735.2837	886.1012	528.7781	-727.2742	873.0298	419.8795	-756.7769	792.1138	422.856	-743.7013	791.0481	312.8604	-742.3278	839.2714	92.9927	-737.586	785.3293	52.679	-668.0438	926.8138	32.3831	-791.9769	990.7758	36.4389	-696.4584	1030.9697	45.7714	-765.4863	921.4153	503.2579	-470.5731	895.637	99.9288	-434.2631	905.6237	503.0221	-618.808	874.0204	105.4551	-654.5793
